<svg width="20" height="20" viewBox="0 0 20 20" fill="none" xmlns="http://www.w3.org/2000/svg">
<path d="M8.02081 11.4167L8.77081 9.02091L6.79165 7.47925H9.20831L9.99998 5.00008L10.7708 7.47925H13.2083L11.2291 9.02091L11.9583 11.4167L9.99998 9.93758L8.02081 11.4167ZM5.08331 19.1667V12.8334C4.45831 12.1806 4.0104 11.4654 3.73956 10.6876C3.46873 9.9098 3.33331 9.12508 3.33331 8.33341C3.33331 6.44453 3.9722 4.86119 5.24998 3.58341C6.52776 2.30564 8.11109 1.66675 9.99998 1.66675C11.8889 1.66675 13.4722 2.30564 14.75 3.58341C16.0278 4.86119 16.6666 6.44453 16.6666 8.33341C16.6666 9.12508 16.5312 9.9098 16.2604 10.6876C15.9896 11.4654 15.5416 12.1806 14.9166 12.8334V19.1667L9.99998 17.5209L5.08331 19.1667ZM9.99998 13.7501C11.5139 13.7501 12.7951 13.2258 13.8437 12.1772C14.8923 11.1286 15.4166 9.8473 15.4166 8.33341C15.4166 6.81953 14.8923 5.53828 13.8437 4.48966C12.7951 3.44105 11.5139 2.91675 9.99998 2.91675C8.48609 2.91675 7.20484 3.44105 6.15623 4.48966C5.10762 5.53828 4.58331 6.81953 4.58331 8.33341C4.58331 9.8473 5.10762 11.1286 6.15623 12.1772C7.20484 13.2258 8.48609 13.7501 9.99998 13.7501ZM6.33331 17.4167L9.99998 16.2709L13.6666 17.4167V13.8542C13.1111 14.257 12.5139 14.5487 11.875 14.7292C11.2361 14.9098 10.6111 15.0001 9.99998 15.0001C9.38887 15.0001 8.76387 14.9098 8.12498 14.7292C7.48609 14.5487 6.88887 14.257 6.33331 13.8542V17.4167Z" fill="#9DBE1D" fill-opacity="0.9"/>
</svg>
