<svg width="30" height="25" viewBox="0 0 30 25" fill="none" xmlns="http://www.w3.org/2000/svg">
<path d="M5.05883 20.8334C4.57587 20.8334 4.15328 20.6772 3.79107 20.3647C3.42885 20.0522 3.24774 19.6876 3.24774 19.2709V5.72925C3.24774 5.31258 3.42885 4.948 3.79107 4.6355C4.15328 4.323 4.57587 4.16675 5.05883 4.16675H25.5845C26.0674 4.16675 26.49 4.323 26.8522 4.6355C27.2144 4.948 27.3955 5.31258 27.3955 5.72925V19.2709C27.3955 19.6876 27.2144 20.0522 26.8522 20.3647C26.49 20.6772 26.0674 20.8334 25.5845 20.8334H5.05883ZM15.3216 12.9688L5.05883 7.16154V19.2709H25.5845V7.16154L15.3216 12.9688ZM15.3216 11.4063L25.4637 5.72925H5.20975L15.3216 11.4063Z" fill="#C4C4C4"/>
</svg>
