<svg width="101" height="89" viewBox="0 0 101 89" fill="none" xmlns="http://www.w3.org/2000/svg">
<path d="M0 49.3129L26.2818 6.55966e-05L100.205 39.3981L73.9229 88.7109L0 49.3129Z" fill="url(#paint0_linear_418_25)"/>
<path d="M54.8175 33.443C50.1282 34.4744 46.6566 37.062 45.0426 40.7292C43.4285 44.3963 43.8652 48.704 46.2721 52.8588C48.6789 57.0135 52.7678 60.5178 57.7857 62.7264C62.8035 64.9349 68.1495 65.5832 72.8391 64.5518C77.5285 63.5203 81.0001 60.9328 82.6141 57.2656C84.2282 53.5984 83.7916 49.2908 81.3847 45.1359C78.9778 40.9813 74.8888 37.4768 69.8709 35.2682C64.8531 33.0597 59.507 32.4115 54.8175 33.443ZM58.1569 61.883C54.3505 60.2077 51.1142 57.7378 48.8201 54.7934C51.8549 52.3655 56.9053 52.0904 61.5644 54.141C66.224 56.1919 69.4319 60.1015 69.6913 63.9795C65.9706 64.2766 61.9633 63.5583 58.1569 61.883ZM80.3061 45.3732C82.5651 49.2727 82.9748 53.3158 81.46 56.7577C79.9451 60.1995 76.6869 62.6282 72.2855 63.5963C71.8222 63.6981 71.3519 63.7815 70.8761 63.8486C70.4472 59.6707 66.9546 55.5067 61.9356 53.2977C56.9173 51.089 51.487 51.326 48.1165 53.8313C47.8446 53.4352 47.5883 53.0319 47.3505 52.6216C45.0915 48.7221 44.6817 44.679 46.1966 41.2371C47.7115 37.7953 50.9697 35.3666 55.3711 34.3985C55.8343 34.2967 56.3047 34.2132 56.7804 34.1461C57.2094 38.324 60.702 42.488 65.721 44.6971C70.74 46.9061 76.1696 46.6691 79.5402 44.1635C79.8121 44.5597 80.0684 44.9629 80.3061 45.3732ZM66.0922 43.8537C61.4327 41.8029 58.2247 37.8932 57.9653 34.0152C61.6861 33.7182 65.6934 34.4364 69.4997 36.1117C73.306 37.787 76.5424 40.257 78.8365 43.2013C75.8015 45.6294 70.7517 45.9045 66.0922 43.8537Z" fill="#272727"/>
<rect x="42.2283" y="10.4898" width="2" height="53.7356" transform="rotate(25.0693 42.2283 10.4898)" fill="#272727"/>
<path d="M24 39.8593L24.5115 39L38.1066 47.0934C38.3439 47.2347 38.4218 47.5416 38.2805 47.7788V47.7788C38.1392 48.0161 37.8324 48.094 37.5951 47.9527L24 39.8593Z" fill="#272727" fill-opacity="0.6"/>
<path d="M19 27.8593L19.5115 27L33.1066 35.0934C33.3439 35.2347 33.4218 35.5416 33.2805 35.7788V35.7788C33.1392 36.0161 32.8324 36.094 32.5951 35.9527L19 27.8593Z" fill="#272727" fill-opacity="0.6"/>
<path d="M26 22.8593L26.5115 22L40.1066 30.0934C40.3439 30.2347 40.4218 30.5416 40.2805 30.7788V30.7788C40.1392 31.0161 39.8324 31.094 39.5951 30.9527L26 22.8593Z" fill="#272727" fill-opacity="0.6"/>
<defs>
<linearGradient id="paint0_linear_418_25" x1="80.9978" y1="72.0652" x2="22.3219" y2="21.2705" gradientUnits="userSpaceOnUse">
<stop offset="0.631673" stop-color="#F24B28"/>
<stop offset="1" stop-color="#272727" stop-opacity="0.57"/>
</linearGradient>
</defs>
</svg>
