<svg width="143" height="60" viewBox="0 0 143 60" fill="none" xmlns="http://www.w3.org/2000/svg">
<path d="M112.293 47.0304L110.224 45.8992L114.801 37.5268C115.38 36.4683 115.663 35.2741 115.651 33.9443C115.638 32.6145 115.308 30.8456 114.661 28.6377C114.247 27.2236 114.15 25.7435 114.37 24.1973C114.591 22.6511 115.148 21.06 116.043 19.424C117.586 16.6011 119.617 14.6592 122.134 13.5982C124.652 12.5372 127.001 12.6031 129.183 13.7957C131.364 14.9884 132.691 16.9431 133.164 19.6601C133.637 22.377 133.102 25.1469 131.558 27.9698C130.664 29.6057 129.621 30.9213 128.431 31.9165C127.241 32.9118 125.939 33.6166 124.525 34.0309C122.317 34.6779 120.634 35.3462 119.476 36.0358C118.318 36.7254 117.449 37.5995 116.87 38.6581L112.293 47.0304ZM119.464 31.5136C121.036 32.373 122.818 32.3424 124.811 31.4216C126.804 30.5009 128.388 28.9659 129.564 26.8167C130.739 24.6675 131.188 22.5223 130.91 20.381C130.633 18.2399 129.709 16.7395 128.137 15.8801C126.565 15.0207 124.789 15.0496 122.808 15.9667C120.828 16.8838 119.25 18.4169 118.075 20.5662C116.899 22.7154 116.444 24.8624 116.709 27.0073C116.974 29.1521 117.892 30.6542 119.464 31.5136ZM136.402 44.7745C134.913 45.2106 133.495 45.0604 132.148 44.3238C130.801 43.5871 129.909 42.4746 129.473 40.9861C129.037 39.4976 129.187 38.0797 129.923 36.7324C130.66 35.3851 131.773 34.4934 133.261 34.0572C134.75 33.6211 136.168 33.7713 137.515 34.5079C138.862 35.2446 139.754 36.3571 140.19 37.8456C140.626 39.3342 140.476 40.752 139.739 42.0993C139.003 43.4466 137.89 44.3383 136.402 44.7745ZM135.747 42.5417C136.64 42.28 137.297 41.7642 137.718 40.9944C138.139 40.2245 138.219 39.393 137.957 38.4999C137.695 37.6068 137.18 36.9498 136.41 36.5288C135.64 36.1079 134.808 36.0283 133.915 36.29C133.022 36.5517 132.365 37.0675 131.944 37.8373C131.523 38.6072 131.444 39.4387 131.705 40.3318C131.967 41.2249 132.483 41.8819 133.253 42.3029C134.023 42.7238 134.854 42.8034 135.747 42.5417Z" fill="url(#paint0_linear_138_123)"/>
<rect y="39" width="14" height="2" fill="url(#paint1_linear_138_123)"/>
<rect x="20" y="14" width="14" height="2" fill="url(#paint2_linear_138_123)"/>
<path d="M8.51 26.93H19.31L18.8 29.51H7.97L8.51 26.93ZM6.56 38H3.56L7.76 17H22.58L22.07 19.61H10.22L6.56 38ZM27.733 26.06H38.533L38.023 28.61H27.223L27.733 26.06ZM26.113 35.39H38.383L37.873 38H22.603L26.803 17H41.623L41.113 19.61H29.263L26.113 35.39ZM42.7006 38L46.9006 17H55.1206C57.2406 17 59.0506 17.36 60.5506 18.08C62.0506 18.78 63.1906 19.77 63.9706 21.05C64.7706 22.33 65.1706 23.85 65.1706 25.61C65.1706 27.45 64.8606 29.14 64.2406 30.68C63.6206 32.2 62.7306 33.51 61.5706 34.61C60.4306 35.69 59.0606 36.53 57.4606 37.13C55.8606 37.71 54.0706 38 52.0906 38H42.7006ZM46.2106 35.39H52.1806C54.2606 35.39 56.0406 34.98 57.5206 34.16C59.0006 33.32 60.1406 32.18 60.9406 30.74C61.7406 29.28 62.1406 27.63 62.1406 25.79C62.1406 24.53 61.8706 23.44 61.3306 22.52C60.7906 21.58 59.9706 20.86 58.8706 20.36C57.7906 19.86 56.4406 19.61 54.8206 19.61H49.3606L46.2106 35.39ZM64.0128 38L77.7528 17H80.7228L86.0328 38H83.0628L78.3828 18.62H79.5828L67.2528 38H64.0128ZM69.1128 32.75L70.4328 30.35H82.2228L82.6428 32.75H69.1128ZM89.1655 38L93.3655 17H96.3655L92.6755 35.39H104.075L103.565 38H89.1655Z" fill="url(#paint3_linear_138_123)"/>
<defs>
<linearGradient id="paint0_linear_138_123" x1="102.429" y1="19.2996" x2="141.795" y2="43.3234" gradientUnits="userSpaceOnUse">
<stop offset="0.0188356" stop-color="#E2E2E2" stop-opacity="0.34"/>
<stop offset="1" stop-color="#F24B28"/>
</linearGradient>
<linearGradient id="paint1_linear_138_123" x1="1.04308e-07" y1="40" x2="14" y2="40" gradientUnits="userSpaceOnUse">
<stop stop-color="#F24B28"/>
<stop offset="1" stop-color="#272727" stop-opacity="0.71"/>
</linearGradient>
<linearGradient id="paint2_linear_138_123" x1="20" y1="15" x2="34" y2="15" gradientUnits="userSpaceOnUse">
<stop stop-color="#F24B28"/>
<stop offset="1" stop-color="#272727" stop-opacity="0.71"/>
</linearGradient>
<linearGradient id="paint3_linear_138_123" x1="5.8806" y1="38.3448" x2="103.442" y2="9.82107" gradientUnits="userSpaceOnUse">
<stop stop-color="#F24B28"/>
<stop offset="1" stop-color="#E2E2E2" stop-opacity="0.38"/>
</linearGradient>
</defs>
</svg>
