<svg width="15" height="19" viewBox="0 0 15 19" fill="none" xmlns="http://www.w3.org/2000/svg">
<path d="M6.46594 1.21237C6.46594 0.542797 7.00874 0 7.67831 0V0C8.34789 0 8.89068 0.542797 8.89068 1.21237V18.56H6.46594V1.21237Z" fill="url(#paint0_linear_364_2)"/>
<path d="M6.46594 0.946411L6.52435 0.916303C7.50616 0.410215 8.84676 0.710664 9.51866 1.58738L13.7833 7.15204C14.4552 8.02876 14.204 9.14974 13.2222 9.65583L13.1638 9.68593L6.46594 0.946411Z" fill="#E2E2E2"/>
<path d="M7.01819 0L7.06667 0.0267063C8.03415 0.559676 8.25107 1.68446 7.55117 2.53899L1.80022 9.5605L1.75174 9.53379C0.784261 9.00082 0.567342 7.87603 1.26724 7.02151L7.01819 0Z" fill="#E2E2E2"/>
<defs>
<linearGradient id="paint0_linear_364_2" x1="7.67831" y1="0" x2="7.67831" y2="18.56" gradientUnits="userSpaceOnUse">
<stop stop-color="#E2E2E2"/>
<stop offset="1" stop-color="#E2E2E2" stop-opacity="0.34"/>
</linearGradient>
</defs>
</svg>
