<svg width="133" height="133" viewBox="0 0 133 133" fill="none" xmlns="http://www.w3.org/2000/svg">
<g clip-path="url(#clip0_114_491)">
<path d="M25.8559 60.8435L30.5526 59.1326L33.0674 66.0365L26.1659 68.5507L23.9065 62.3482L21.1155 63.3649L23.3749 69.5674L17.3684 71.7555L18.3851 74.5465L24.3916 72.3584L26.9058 79.2597L18.1124 82.4629L19.1292 85.254L27.9226 82.0507L30.4368 88.9524L24.43 91.1404L25.4467 93.9314L31.4533 91.7433L33.7125 97.9449L36.5035 96.9282L34.2445 90.7267L41.1459 88.2127L43.6609 95.1162L38.9641 96.8272L39.9808 99.6181L44.6776 97.9072L45.4672 100.075L48.2582 99.0586L47.4684 96.8905L54.37 94.3765L55.1597 96.5443L57.9507 95.5276L57.161 93.3598L64.0625 90.8456L64.8523 93.0137L67.6433 91.997L66.8535 89.8289L71.5543 88.1164L70.5374 85.3254L65.8366 87.0378L63.3218 80.1343L70.2235 77.6202L72.4826 83.8219L75.2736 82.8052L73.0144 76.6035L79.0188 74.4163L78.0021 71.6253L71.9977 73.8125L69.4835 66.911L78.2764 63.7079L77.2597 60.9169L68.4668 64.12L65.9529 57.2184L71.9573 55.0311L70.9404 52.2402L64.9359 54.4275L62.6764 48.2251L59.8854 49.2418L62.1449 55.4442L55.2432 57.9583L52.7283 51.0546L57.4294 49.3422L56.4127 46.5512L51.7116 48.2636L50.9219 46.0957L48.1309 47.1124L48.9206 49.2803L42.0192 51.7943L41.2295 49.6265L38.4385 50.6432L39.2282 52.811L32.3268 55.3251L31.5371 53.1572L28.7461 54.1739L29.5359 56.3416L24.8392 58.0525L25.8559 60.8435ZM29.6961 78.2435L27.1822 71.3422L34.0834 68.828L36.5977 75.7295L29.6961 78.2435ZM36.8748 67.8111L43.776 65.2969L46.29 72.1985L39.3887 74.7127L36.8748 67.8111ZM33.2269 87.9362L30.7129 81.0346L37.6143 78.5207L40.1283 85.4221L33.2269 87.9362ZM42.9194 84.4053L40.4053 77.5038L47.3068 74.9898L49.8208 81.8912L42.9194 84.4053ZM50.0979 73.9732L56.9994 71.4589L59.5136 78.3606L52.612 80.8746L50.0979 73.9732ZM46.4513 94.1002L43.9364 87.1966L50.8376 84.6825L53.3525 91.5862L46.4513 94.1002ZM63.0453 88.0552L56.1438 90.5692L53.6289 83.6655L60.5304 81.1514L63.0453 88.0552ZM69.2063 74.8296L62.3048 77.3438L59.7906 70.4423L66.692 67.9283L69.2063 74.8296ZM63.1613 58.2354L65.6754 65.1371L58.7737 67.6513L56.2596 60.7496L63.1613 58.2354ZM55.9827 68.668L49.0811 71.1819L46.5671 64.2805L53.4683 61.7664L55.9827 68.668ZM49.9369 52.0713L52.4518 58.975L45.5503 61.4893L43.0354 54.5855L49.9369 52.0713ZM40.2443 55.6019L42.7593 62.506L35.8579 65.02L33.3431 58.1161L40.2443 55.6019Z" fill="url(#paint0_linear_114_491)"/>
<path d="M10.9762 86.6437C13.9733 94.8706 20.694 101.164 29.8975 104.363C38.9944 107.525 49.4502 107.283 59.3396 103.681C69.228 100.078 77.3898 93.5384 82.3211 85.2664C84.8859 80.964 86.4195 76.4581 86.9 71.9773L99.6849 60.4245L100.372 62.3095L128.26 52.1499L122.966 37.6181L95.0781 47.7773L95.7645 49.6617L78.5084 49.0382C76.1371 46.7623 73.3336 44.8274 70.1779 43.3213L68.8984 46.0021C75.5697 49.1859 80.3146 54.2143 82.6204 60.5444C88.2054 75.8757 77.3056 93.9743 58.3231 100.89C39.339 107.805 19.3514 100.958 13.7672 85.627C8.18268 70.295 19.0834 52.1964 38.0664 45.2819C47.081 41.9979 56.6249 41.6921 64.9412 44.4205L65.3767 44.5759L66.375 41.7781L65.9218 41.6165L65.8862 41.6044C56.9354 38.6629 46.6943 38.9777 37.0499 42.491C27.1611 46.0931 18.999 52.6328 14.0676 60.9055C9.07729 69.276 7.97977 78.4164 10.9762 86.6437ZM121.192 41.4257L124.453 50.3757L120.969 51.6448L117.708 42.6944L121.192 41.4257ZM114.917 43.7117L118.178 52.6621L114.694 53.9308L111.434 44.9805L114.917 43.7117ZM108.643 45.9971L111.903 54.9477L108.42 56.2163L105.16 47.2661L108.643 45.9971ZM102.368 48.2827L105.629 57.2331L102.146 58.5022L98.8852 49.5518L102.368 48.2827ZM87.0423 67.8453C86.9318 65.0144 86.3925 62.2222 85.4112 59.5281C84.438 56.8565 83.0426 54.365 81.2837 52.111L96.8612 52.674L98.5874 57.4125L87.0423 67.8453Z" fill="url(#paint1_linear_114_491)"/>
</g>
<defs>
<linearGradient id="paint0_linear_114_491" x1="36.0935" y1="99.0543" x2="60.2956" y2="47.1158" gradientUnits="userSpaceOnUse">
<stop stop-color="#F24B28"/>
<stop offset="0.552083" stop-color="#272727" stop-opacity="0"/>
</linearGradient>
<linearGradient id="paint1_linear_114_491" x1="45.3214" y1="111.761" x2="86.9999" y2="30.5" gradientUnits="userSpaceOnUse">
<stop stop-color="#F24B28"/>
<stop offset="0.349002" stop-color="#272727" stop-opacity="0"/>
</linearGradient>
<clipPath id="clip0_114_491">
<rect width="100" height="100" fill="white" transform="translate(90.6423 132.879) rotate(-155.016)"/>
</clipPath>
</defs>
</svg>
