<svg width="107" height="107" viewBox="0 0 107 107" fill="none" xmlns="http://www.w3.org/2000/svg">
<g clip-path="url(#clip0_114_491)">
<path d="M20.6847 48.6748L24.442 47.3061L26.4539 52.8292L20.9327 54.8406L19.1251 49.8786L16.8923 50.692L18.6999 55.654L13.8946 57.4044L14.708 59.6372L19.5133 57.8868L21.5246 63.4078L14.4898 65.9704L15.3033 68.2032L22.3381 65.6406L24.3494 71.162L19.544 72.9123L20.3573 75.1451L25.1626 73.3947L26.97 78.3559L29.2028 77.5426L27.3955 72.5814L32.9167 70.5702L34.9286 76.093L31.1713 77.4618L31.9846 79.6945L35.742 78.3258L36.3737 80.0602L38.6065 79.2469L37.9746 77.5124L43.4959 75.5012L44.1277 77.2355L46.3605 76.4221L45.7287 74.6879L51.2499 72.6765L51.8818 74.411L54.1146 73.5976L53.4827 71.8631L57.2434 70.4932L56.4299 68.2603L52.6692 69.6303L50.6574 64.1075L56.1787 62.0961L57.986 67.0575L60.2188 66.2442L58.4115 61.2828L63.215 59.5331L62.4017 57.3003L57.5981 59.05L55.5868 53.5288L62.6211 50.9663L61.8077 48.7336L54.7734 51.296L52.7622 45.7747L57.5658 44.0249L56.7523 41.7922L51.9487 43.542L50.141 38.5801L47.9083 39.3935L49.7159 44.3554L44.1945 46.3667L42.1826 40.8437L45.9435 39.4738L45.1301 37.241L41.3693 38.6109L40.7375 36.8766L38.5047 37.69L39.1365 39.4242L33.6153 41.4355L32.9836 39.7012L30.7508 40.5146L31.3825 42.2488L25.8614 44.2601L25.2296 42.5258L22.9968 43.3392L23.6287 45.0733L19.8713 46.442L20.6847 48.6748ZM23.7568 62.5948L21.7457 57.0738L27.2667 55.0625L29.2781 60.5837L23.7568 62.5948ZM29.4998 54.2489L35.0208 52.2376L37.0319 57.7589L31.5109 59.7702L29.4998 54.2489ZM26.5815 70.349L24.5703 64.8277L30.0914 62.8166L32.1026 68.3377L26.5815 70.349ZM34.3355 67.5242L32.3242 62.0031L37.8454 59.9919L39.8566 65.513L34.3355 67.5242ZM40.0783 59.1786L45.5995 57.1672L47.6108 62.6885L42.0895 64.6997L40.0783 59.1786ZM37.161 75.2802L35.149 69.7573L40.67 67.746L42.682 73.269L37.161 75.2802ZM50.4362 70.4442L44.915 72.4554L42.9031 66.9324L48.4242 64.9212L50.4362 70.4442ZM55.365 59.8637L49.8438 61.8751L47.8324 56.3539L53.3536 54.3427L55.365 59.8637ZM50.529 46.5884L52.5403 52.1097L47.0189 54.121L45.0076 48.5997L50.529 46.5884ZM44.7861 54.9344L39.2649 56.9456L37.2536 51.4244L42.7746 49.4131L44.7861 54.9344ZM39.9495 41.657L41.9614 47.1801L36.4402 49.1914L34.4283 43.6684L39.9495 41.657ZM32.1954 44.4816L34.2074 50.0048L28.6863 52.016L26.6744 46.4929L32.1954 44.4816Z" fill="url(#paint0_linear_114_491)"/>
<path d="M8.78098 69.3148C11.1786 75.8964 16.5552 80.9307 23.918 83.4902C31.1955 86.02 39.5602 85.8261 47.4717 82.9444C55.3824 80.0626 61.9118 74.8307 65.8569 68.213C67.9087 64.7711 69.1356 61.1664 69.52 57.5817L79.7479 48.3395L80.2972 49.8475L102.608 41.7198L98.373 30.0943L76.0625 38.2217L76.6116 39.7293L62.8068 39.2304C60.9097 37.4097 58.6669 35.8618 56.1423 34.657L55.1187 36.8015C60.4557 39.3486 64.2517 43.3713 66.0963 48.4354C70.5644 60.7005 61.8445 75.1794 46.6585 80.7115C31.4712 86.2436 15.4811 80.766 11.0138 68.5015C6.54616 56.2359 15.2667 41.757 30.4531 36.2254C37.6648 33.5982 45.2999 33.3536 51.9529 35.5363L52.3013 35.6606L53.1 33.4224L52.7374 33.2931L52.709 33.2834C45.5483 30.9302 37.3554 31.1821 29.6399 33.9927C21.7289 36.8744 15.1992 42.1062 11.2541 48.7243C7.26184 55.4207 6.38383 62.733 8.78098 69.3148ZM96.9535 33.1405L99.5622 40.3005L96.7751 41.3158L94.1667 34.1554L96.9535 33.1405ZM91.9339 34.9693L94.5423 42.1296L91.7554 43.1446L89.1472 35.9843L91.9339 34.9693ZM86.9143 36.7976L89.5226 43.9581L86.7361 44.973L84.1277 37.8128L86.9143 36.7976ZM81.8948 38.6261L84.5033 45.7863L81.7165 46.8016L79.1082 39.6413L81.8948 38.6261ZM69.6339 54.2761C69.5454 52.0114 69.114 49.7776 68.329 47.6224C67.5504 45.4851 66.4341 43.4919 65.027 41.6887L77.489 42.1391L78.8699 45.9299L69.6339 54.2761Z" fill="url(#paint1_linear_114_491)"/>
</g>
<defs>
<linearGradient id="paint0_linear_114_491" x1="28.8747" y1="79.2435" x2="48.2364" y2="37.6926" gradientUnits="userSpaceOnUse">
<stop stop-color="#F24B28"/>
<stop offset="0.552083" stop-color="#272727" stop-opacity="0"/>
</linearGradient>
<linearGradient id="paint1_linear_114_491" x1="36.2571" y1="89.4084" x2="69.5999" y2="24.3999" gradientUnits="userSpaceOnUse">
<stop stop-color="#F24B28"/>
<stop offset="0.349002" stop-color="#272727" stop-opacity="0"/>
</linearGradient>
<clipPath id="clip0_114_491">
<rect width="80" height="80" fill="white" transform="translate(72.5139 106.303) rotate(-155.016)"/>
</clipPath>
</defs>
</svg>
