<svg width="33" height="28" viewBox="0 0 33 28" fill="none" xmlns="http://www.w3.org/2000/svg">
<path d="M4.8125 23.3333C4.2625 23.3333 3.78125 23.1583 3.36875 22.8083C2.95625 22.4583 2.75 22.05 2.75 21.5833V6.41663C2.75 5.94996 2.95625 5.54163 3.36875 5.19163C3.78125 4.84163 4.2625 4.66663 4.8125 4.66663H28.1875C28.7375 4.66663 29.2187 4.84163 29.6312 5.19163C30.0437 5.54163 30.25 5.94996 30.25 6.41663V21.5833C30.25 22.05 30.0437 22.4583 29.6312 22.8083C29.2187 23.1583 28.7375 23.3333 28.1875 23.3333H4.8125ZM16.5 14.525L4.8125 8.02079V21.5833H28.1875V8.02079L16.5 14.525ZM16.5 12.775L28.05 6.41663H4.98438L16.5 12.775Z" fill="#C4C4C4"/>
</svg>
