<svg width="86" height="18" viewBox="0 0 86 18" fill="none" xmlns="http://www.w3.org/2000/svg">
<path d="M72.3687 16.5L74.1125 10.8L69.5 7.5H75.2L77 1.5L78.8 7.5H84.5L79.8875 10.8L81.6312 16.5L77 12.975L72.3687 16.5ZM74.4312 13.4437L77 11.4937L79.5688 13.4437L78.5375 10.2L80.9 8.6625H78.0688L77 5.41875L75.9312 8.6625H73.1L75.4625 10.2L74.4312 13.4437Z" fill="#78B802"/>
<path d="M55.3687 16.5L57.1125 10.8L52.5 7.5H58.2L60 1.5L61.8 7.5H67.5L62.8875 10.8L64.6312 16.5L60 12.975L55.3687 16.5ZM57.4312 13.4437L60 11.4937L62.5688 13.4437L61.5375 10.2L63.9 8.6625H61.0688L60 5.41875L58.9312 8.6625H56.1L58.4625 10.2L57.4312 13.4437Z" fill="#78B802"/>
<path d="M60 7C58.4 11 59.3334 10 60 9L60.5001 9.5L58.1039 12.695M64.5001 9L58.1039 12.695M64.5001 9L61.0001 8.79412M64.5001 9C64.9001 9.02353 62.3335 9.0098 61.0001 9L61.5001 9.5L62.0001 10M58.1039 12.695L57.5001 13.5L59.0001 10L56.0001 8.5L61.0001 8.79412M60.0001 5.5L60.5001 8.5L59.5001 6.5L62.5001 13.5L59.5001 10L58.0001 8.5L61.5001 11L63.0001 9L61.0001 8.79412" stroke="#78B802" stroke-opacity="0.7"/>
<path d="M38.3687 16.5L40.1125 10.8L35.5 7.5H41.2L43 1.5L44.8 7.5H50.5L45.8875 10.8L47.6312 16.5L43 12.975L38.3687 16.5ZM40.4312 13.4437L43 11.4937L45.5688 13.4437L44.5375 10.2L46.9 8.6625H44.0688L43 5.41875L41.9312 8.6625H39.1L41.4625 10.2L40.4312 13.4437Z" fill="#78B802"/>
<path d="M43 7C41.4 11 42.3334 10 43 9L43.5001 9.5L41.1039 12.695M47.5001 9L41.1039 12.695M47.5001 9L44.0001 8.79412M47.5001 9C47.9001 9.02353 45.3335 9.0098 44.0001 9L44.5001 9.5L45.0001 10M41.1039 12.695L40.5001 13.5L42.0001 10L39.0001 8.5L44.0001 8.79412M43.0001 5.5L43.5001 8.5L42.5001 6.5L45.5001 13.5L42.5001 10L41.0001 8.5L44.5001 11L46.0001 9L44.0001 8.79412" stroke="#78B802" stroke-opacity="0.7"/>
<path d="M21.3687 16.5L23.1125 10.8L18.5 7.5H24.2L26 1.5L27.8 7.5H33.5L28.8875 10.8L30.6312 16.5L26 12.975L21.3687 16.5ZM23.4312 13.4437L26 11.4937L28.5688 13.4437L27.5375 10.2L29.9 8.6625H27.0688L26 5.41875L24.9312 8.6625H22.1L24.4625 10.2L23.4312 13.4437Z" fill="#78B802"/>
<path d="M26 7C24.4 11 25.3334 10 26 9L26.5001 9.5L24.1039 12.695M30.5001 9L24.1039 12.695M30.5001 9L27.0001 8.79412M30.5001 9C30.9001 9.02353 28.3335 9.0098 27.0001 9L27.5001 9.5L28.0001 10M24.1039 12.695L23.5001 13.5L25.0001 10L22.0001 8.5L27.0001 8.79412M26.0001 5.5L26.5001 8.5L25.5001 6.5L28.5001 13.5L25.5001 10L24.0001 8.5L27.5001 11L29.0001 9L27.0001 8.79412" stroke="#78B802" stroke-opacity="0.7"/>
<path d="M4.36875 16.5L6.1125 10.8L1.5 7.5H7.2L9 1.5L10.8 7.5H16.5L11.8875 10.8L13.6312 16.5L9 12.975L4.36875 16.5ZM6.43125 13.4437L9 11.4937L11.5688 13.4437L10.5375 10.2L12.9 8.6625H10.0688L9 5.41875L7.93125 8.6625H5.1L7.4625 10.2L6.43125 13.4437Z" fill="#78B802"/>
<path d="M9.00002 7C7.40002 11 8.33335 10 9.00002 9L9.50012 9.5L7.10387 12.695M13.5001 9L7.10387 12.695M13.5001 9L10.0001 8.79412M13.5001 9C13.9001 9.02353 11.3335 9.0098 10.0001 9L10.5001 9.5L11.0001 10M7.10387 12.695L6.50012 13.5L8.00012 10L5.00012 8.5L10.0001 8.79412M9.00012 5.5L9.50012 8.5L8.50012 6.5L11.5001 13.5L8.50012 10L7.00012 8.5L10.5001 11L12.0001 9L10.0001 8.79412" stroke="#78B802" stroke-opacity="0.7"/>
</svg>
