<svg width="39" height="39" viewBox="0 0 39 39" fill="none" xmlns="http://www.w3.org/2000/svg">
<path d="M8.9375 35.75C8.2875 35.75 7.71875 35.5062 7.23125 35.0187C6.74375 34.5312 6.5 33.9625 6.5 33.3125V12.1875C6.5 11.5375 6.74375 10.9687 7.23125 10.4812C7.71875 9.99375 8.2875 9.75 8.9375 9.75H13.4063V9.34375C13.4063 7.6375 13.9953 6.19531 15.1734 5.01719C16.3516 3.83906 17.7938 3.25 19.5 3.25C21.2063 3.25 22.6484 3.83906 23.8266 5.01719C25.0047 6.19531 25.5938 7.6375 25.5938 9.34375V9.75H30.0625C30.7125 9.75 31.2812 9.99375 31.7687 10.4812C32.2562 10.9687 32.5 11.5375 32.5 12.1875V33.3125C32.5 33.9625 32.2562 34.5312 31.7687 35.0187C31.2812 35.5062 30.7125 35.75 30.0625 35.75H8.9375ZM15.8438 9.34375V9.75H23.1563V9.34375C23.1563 8.31458 22.8042 7.44792 22.1 6.74375C21.3958 6.03958 20.5292 5.6875 19.5 5.6875C18.4708 5.6875 17.6042 6.03958 16.9 6.74375C16.1958 7.44792 15.8438 8.31458 15.8438 9.34375ZM8.9375 33.3125H30.0625V12.1875H25.5938V15.8438C25.5938 16.1958 25.4786 16.487 25.2484 16.7172C25.0182 16.9474 24.7271 17.0625 24.375 17.0625C24.0229 17.0625 23.7318 16.9474 23.5016 16.7172C23.2714 16.487 23.1563 16.1958 23.1563 15.8438V12.1875H15.8438V15.8438C15.8438 16.1958 15.7286 16.487 15.4984 16.7172C15.2682 16.9474 14.9771 17.0625 14.625 17.0625C14.2729 17.0625 13.9818 16.9474 13.7516 16.7172C13.5214 16.487 13.4063 16.1958 13.4063 15.8438V12.1875H8.9375V33.3125Z" fill="url(#paint0_linear_138_129)"/>
<defs>
<linearGradient id="paint0_linear_138_129" x1="6.5" y1="3.25" x2="32.5" y2="35.75" gradientUnits="userSpaceOnUse">
<stop offset="0.287992" stop-color="#F24B28"/>
<stop offset="1" stop-color="#E2E2E2" stop-opacity="0.44"/>
</linearGradient>
</defs>
</svg>
