<svg width="20" height="20" viewBox="0 0 20 20" fill="none" xmlns="http://www.w3.org/2000/svg">
<path d="M9.08331 12.7708L13.8333 8.02075L12.9583 7.16659L9.14581 10.9791L7.04165 8.87492L6.12498 9.79158L9.08331 12.7708ZM9.99998 18.3124C8.05554 17.8263 6.45831 16.6978 5.20831 14.927C3.95831 13.1562 3.33331 11.2152 3.33331 9.10408V4.14575L9.99998 1.64575L16.6666 4.14575V9.10408C16.6666 11.2152 16.0416 13.1562 14.7916 14.927C13.5416 16.6978 11.9444 17.8263 9.99998 18.3124ZM9.99998 17.0208C11.5972 16.493 12.8993 15.4964 13.9062 14.0312C14.9132 12.5659 15.4166 10.9235 15.4166 9.10408V5.02075L9.99998 2.97909L4.58331 5.02075V9.10408C4.58331 10.9235 5.08679 12.5659 6.09373 14.0312C7.10067 15.4964 8.40276 16.493 9.99998 17.0208Z" fill="#9DBE1D" fill-opacity="0.9"/>
</svg>
