<svg width="51" height="51" viewBox="0 0 51 51" fill="none" xmlns="http://www.w3.org/2000/svg">
<rect width="51" height="51" rx="25" fill="#E2E2E2" fill-opacity="0.88"/>
<path d="M15.8633 40.4542L13.7943 39.323L18.372 30.9506C18.9508 29.8921 19.2339 28.6979 19.2214 27.3681C19.2089 26.0383 18.8791 24.2694 18.2321 22.0615C17.8178 20.6474 17.7208 19.1673 17.9412 17.6211C18.1616 16.0749 18.719 14.4838 19.6135 12.8478C21.1569 10.0249 23.1875 8.08301 25.7051 7.02202C28.2228 5.96102 30.5723 6.02685 32.7536 7.2195C34.9349 8.41215 36.2619 10.3669 36.7348 13.0839C37.2077 15.8008 36.6724 18.5707 35.1289 21.3936C34.2345 23.0295 33.1922 24.3451 32.0022 25.3403C30.8122 26.3356 29.5102 27.0404 28.0961 27.4547C25.8881 28.1017 24.205 28.77 23.0467 29.4596C21.8884 30.1492 21.0198 31.0233 20.441 32.0819L15.8633 40.4542ZM23.0348 24.9374C24.6066 25.7968 26.3891 25.7662 28.3821 24.8454C30.3752 23.9247 31.9592 22.3897 33.1343 20.2405C34.3095 18.0913 34.7584 15.946 34.4812 13.8048C34.204 11.6636 33.2794 10.1633 31.7076 9.30393C30.1358 8.44452 28.3596 8.47337 26.3789 9.39048C24.3983 10.3076 22.8204 11.8407 21.6453 13.99C20.4702 16.1392 20.0151 18.2862 20.2799 20.431C20.5447 22.5759 21.463 24.078 23.0348 24.9374ZM39.9723 38.1983C38.4838 38.6344 37.0659 38.4842 35.7186 37.7476C34.3714 37.0109 33.4797 35.8984 33.0435 34.4099C32.6073 32.9213 32.7576 31.5035 33.4942 30.1562C34.2308 28.8089 35.3434 27.9172 36.8319 27.481C38.3204 27.0449 39.7383 27.1951 41.0856 27.9317C42.4329 28.6684 43.3246 29.7809 43.7607 31.2694C44.1969 32.758 44.0467 34.1758 43.31 35.5231C42.5734 36.8704 41.4608 37.7621 39.9723 38.1983ZM39.3181 35.9655C40.2112 35.7038 40.8682 35.188 41.2891 34.4182C41.7101 33.6483 41.7897 32.8168 41.528 31.9237C41.2663 31.0306 40.7505 30.3736 39.9806 29.9526C39.2108 29.5317 38.3793 29.4521 37.4862 29.7138C36.5931 29.9755 35.936 30.4913 35.5151 31.2611C35.0942 32.031 35.0145 32.8625 35.2762 33.7556C35.5379 34.6487 36.0537 35.3057 36.8236 35.7267C37.5935 36.1476 38.425 36.2272 39.3181 35.9655Z" fill="url(#paint0_linear_154_5)"/>
<defs>
<linearGradient id="paint0_linear_154_5" x1="6" y1="12.7234" x2="45.3658" y2="36.7472" gradientUnits="userSpaceOnUse">
<stop offset="0.0188356" stop-color="#272727"/>
<stop offset="1" stop-color="#F24B28"/>
</linearGradient>
</defs>
</svg>
